<svg xmlns="http://www.w3.org/2000/svg" width="1600" height="900" viewBox="0 0 1600 900" role="img"><defs><filter id="shadow" x="-20%" y="-20%" width="140%" height="150%"><feDropShadow dx="0" dy="10" stdDeviation="14" flood-color="#243141" flood-opacity=".08"/></filter><marker id="arrow" markerWidth="12" markerHeight="12" refX="10" refY="6" orient="auto"><path d="M0 0 L12 6 L0 12 Z" fill="#23836d"/></marker></defs><rect width="1600" height="900" fill="#f7f5f1"/><circle cx="1510" cy="-35" r="210" fill="#23836d" opacity=".075"/><circle cx="90" cy="885" r="145" fill="#23836d" opacity=".055"/><text x="48" y="70" font-family="'Inter','Segoe UI',sans-serif" font-size="14" font-weight="800" text-anchor="start" fill="#23836d" opacity="1">SYSTEM ARCHITECTURE</text><text x="48" y="120" font-family="'Noto Sans SC','Microsoft YaHei',sans-serif" font-size="40" font-weight="800" text-anchor="start" fill="#243141" opacity="1">NeoKG · 知识图谱构建与交互架构</text><text x="48" y="154" font-family="'Noto Sans SC','Microsoft YaHei',sans-serif" font-size="18" font-weight="450" text-anchor="start" fill="#667384" opacity="1">文档解析、图谱分析与 Graph RAG 在同一知识工作台中协作</text><rect x="1328" y="58" width="224" height="38" rx="19" fill="#23836d" opacity=".10"/><text x="1440" y="83" font-family="'Noto Sans SC','Microsoft YaHei',sans-serif" font-size="15" font-weight="700" text-anchor="middle" fill="#23836d" opacity="1">依据当前源码整理</text><g filter="url(#shadow)"><rect x="45" y="185" width="330" height="610" rx="28" fill="#ffffff" stroke="#d9dee5"/></g><rect x="45" y="185" width="330" height="10" rx="5" fill="#23836d"/><text x="73" y="237" font-family="'Inter','Segoe UI',sans-serif" font-size="14" font-weight="750" text-anchor="start" fill="#23836d" opacity="1">CLIENT</text><text x="73" y="276" font-family="'Noto Sans SC','Microsoft YaHei',sans-serif" font-size="26" font-weight="750" text-anchor="start" fill="#243141" opacity="1">交互工作台</text><rect x="67" y="310" width="286" height="102" rx="18" fill="#fff" stroke="#23836d" stroke-opacity=".28"/><rect x="67" y="310" width="7" height="102" rx="3.5" fill="#23836d"/><text x="91" y="344" font-family="'Noto Sans SC','Microsoft YaHei',sans-serif" font-size="22" font-weight="700" text-anchor="start" fill="#243141" opacity="1">Vue 3 前端</text><text x="91" y="374" font-family="'Noto Sans SC','Microsoft YaHei',sans-serif" font-size="16" font-weight="450" text-anchor="start" fill="#667384" opacity="1">Ant Design Vue + Pinia</text><rect x="67" y="428" width="286" height="102" rx="18" fill="#fff" stroke="#23836d" stroke-opacity=".28"/><rect x="67" y="428" width="7" height="102" rx="3.5" fill="#23836d"/><text x="91" y="462" font-family="'Noto Sans SC','Microsoft YaHei',sans-serif" font-size="22" font-weight="700" text-anchor="start" fill="#243141" opacity="1">图谱可视化</text><text x="91" y="492" font-family="'Noto Sans SC','Microsoft YaHei',sans-serif" font-size="16" font-weight="450" text-anchor="start" fill="#667384" opacity="1">ECharts Graph</text><rect x="67" y="546" width="286" height="102" rx="18" fill="#fff" stroke="#23836d" stroke-opacity=".28"/><rect x="67" y="546" width="7" height="102" rx="3.5" fill="#23836d"/><text x="91" y="580" font-family="'Noto Sans SC','Microsoft YaHei',sans-serif" font-size="22" font-weight="700" text-anchor="start" fill="#243141" opacity="1">检索与管理</text><text x="91" y="610" font-family="'Noto Sans SC','Microsoft YaHei',sans-serif" font-size="16" font-weight="450" text-anchor="start" fill="#667384" opacity="1">导入 / 查询 / 分析 / 对话</text><g filter="url(#shadow)"><rect x="440" y="185" width="330" height="610" rx="28" fill="#ffffff" stroke="#d9dee5"/></g><rect x="440" y="185" width="330" height="10" rx="5" fill="#23836d"/><text x="468" y="237" font-family="'Inter','Segoe UI',sans-serif" font-size="14" font-weight="750" text-anchor="start" fill="#23836d" opacity="1">APPLICATION</text><text x="468" y="276" font-family="'Noto Sans SC','Microsoft YaHei',sans-serif" font-size="26" font-weight="750" text-anchor="start" fill="#243141" opacity="1">接口与服务</text><rect x="462" y="310" width="286" height="102" rx="18" fill="#fff" stroke="#23836d" stroke-opacity=".28"/><rect x="462" y="310" width="7" height="102" rx="3.5" fill="#23836d"/><text x="486" y="344" font-family="'Noto Sans SC','Microsoft YaHei',sans-serif" font-size="22" font-weight="700" text-anchor="start" fill="#243141" opacity="1">Spring Boot API</text><text x="486" y="374" font-family="'Noto Sans SC','Microsoft YaHei',sans-serif" font-size="16" font-weight="450" text-anchor="start" fill="#667384" opacity="1">文档、图谱、关键词、对话</text><rect x="462" y="428" width="286" height="102" rx="18" fill="#fff" stroke="#23836d" stroke-opacity=".28"/><rect x="462" y="428" width="7" height="102" rx="3.5" fill="#23836d"/><text x="486" y="462" font-family="'Noto Sans SC','Microsoft YaHei',sans-serif" font-size="22" font-weight="700" text-anchor="start" fill="#243141" opacity="1">身份与权限</text><text x="486" y="492" font-family="'Noto Sans SC','Microsoft YaHei',sans-serif" font-size="16" font-weight="450" text-anchor="start" fill="#667384" opacity="1">Sa-Token + Redis</text><rect x="462" y="546" width="286" height="102" rx="18" fill="#fff" stroke="#23836d" stroke-opacity=".28"/><rect x="462" y="546" width="7" height="102" rx="3.5" fill="#23836d"/><text x="486" y="580" font-family="'Noto Sans SC','Microsoft YaHei',sans-serif" font-size="22" font-weight="700" text-anchor="start" fill="#243141" opacity="1">MCP / OpenAPI</text><text x="486" y="610" font-family="'Noto Sans SC','Microsoft YaHei',sans-serif" font-size="16" font-weight="450" text-anchor="start" fill="#667384" opacity="1">能力暴露与接口说明</text><g filter="url(#shadow)"><rect x="835" y="185" width="330" height="610" rx="28" fill="#ffffff" stroke="#d9dee5"/></g><rect x="835" y="185" width="330" height="10" rx="5" fill="#23836d"/><text x="863" y="237" font-family="'Inter','Segoe UI',sans-serif" font-size="14" font-weight="750" text-anchor="start" fill="#23836d" opacity="1">KNOWLEDGE</text><text x="863" y="276" font-family="'Noto Sans SC','Microsoft YaHei',sans-serif" font-size="26" font-weight="750" text-anchor="start" fill="#243141" opacity="1">知识处理</text><rect x="857" y="310" width="286" height="102" rx="18" fill="#fff" stroke="#23836d" stroke-opacity=".28"/><rect x="857" y="310" width="7" height="102" rx="3.5" fill="#23836d"/><text x="881" y="344" font-family="'Noto Sans SC','Microsoft YaHei',sans-serif" font-size="22" font-weight="700" text-anchor="start" fill="#243141" opacity="1">文档解析与抽取</text><text x="881" y="374" font-family="'Noto Sans SC','Microsoft YaHei',sans-serif" font-size="16" font-weight="450" text-anchor="start" fill="#667384" opacity="1">Apache Tika + AI 提取</text><rect x="857" y="428" width="286" height="102" rx="18" fill="#fff" stroke="#23836d" stroke-opacity=".28"/><rect x="857" y="428" width="7" height="102" rx="3.5" fill="#23836d"/><text x="881" y="462" font-family="'Noto Sans SC','Microsoft YaHei',sans-serif" font-size="22" font-weight="700" text-anchor="start" fill="#243141" opacity="1">图谱查询与算法</text><text x="881" y="492" font-family="'Noto Sans SC','Microsoft YaHei',sans-serif" font-size="16" font-weight="450" text-anchor="start" fill="#667384" opacity="1">路径 / PageRank / Louvain</text><rect x="857" y="546" width="286" height="102" rx="18" fill="#fff" stroke="#23836d" stroke-opacity=".28"/><rect x="857" y="546" width="7" height="102" rx="3.5" fill="#23836d"/><text x="881" y="580" font-family="'Noto Sans SC','Microsoft YaHei',sans-serif" font-size="22" font-weight="700" text-anchor="start" fill="#243141" opacity="1">Graph RAG</text><text x="881" y="610" font-family="'Noto Sans SC','Microsoft YaHei',sans-serif" font-size="16" font-weight="450" text-anchor="start" fill="#667384" opacity="1">Top-1 文档 + 一跳关键词</text><g filter="url(#shadow)"><rect x="1230" y="185" width="330" height="610" rx="28" fill="#ffffff" stroke="#d9dee5"/></g><rect x="1230" y="185" width="330" height="10" rx="5" fill="#23836d"/><text x="1258" y="237" font-family="'Inter','Segoe UI',sans-serif" font-size="14" font-weight="750" text-anchor="start" fill="#23836d" opacity="1">DATA</text><text x="1258" y="276" font-family="'Noto Sans SC','Microsoft YaHei',sans-serif" font-size="26" font-weight="750" text-anchor="start" fill="#243141" opacity="1">数据与基础设施</text><rect x="1252" y="310" width="286" height="102" rx="18" fill="#fff" stroke="#23836d" stroke-opacity=".28"/><rect x="1252" y="310" width="7" height="102" rx="3.5" fill="#23836d"/><text x="1276" y="344" font-family="'Noto Sans SC','Microsoft YaHei',sans-serif" font-size="22" font-weight="700" text-anchor="start" fill="#243141" opacity="1">Neo4j</text><text x="1276" y="374" font-family="'Noto Sans SC','Microsoft YaHei',sans-serif" font-size="16" font-weight="450" text-anchor="start" fill="#667384" opacity="1">实体、关系与图算法</text><rect x="1252" y="428" width="286" height="102" rx="18" fill="#fff" stroke="#23836d" stroke-opacity=".28"/><rect x="1252" y="428" width="7" height="102" rx="3.5" fill="#23836d"/><text x="1276" y="462" font-family="'Noto Sans SC','Microsoft YaHei',sans-serif" font-size="22" font-weight="700" text-anchor="start" fill="#243141" opacity="1">PostgreSQL + pgvector</text><text x="1276" y="492" font-family="'Noto Sans SC','Microsoft YaHei',sans-serif" font-size="16" font-weight="450" text-anchor="start" fill="#667384" opacity="1">业务元数据与向量</text><rect x="1252" y="546" width="286" height="102" rx="18" fill="#fff" stroke="#23836d" stroke-opacity=".28"/><rect x="1252" y="546" width="7" height="102" rx="3.5" fill="#23836d"/><text x="1276" y="580" font-family="'Noto Sans SC','Microsoft YaHei',sans-serif" font-size="22" font-weight="700" text-anchor="start" fill="#243141" opacity="1">Redis</text><text x="1276" y="610" font-family="'Noto Sans SC','Microsoft YaHei',sans-serif" font-size="16" font-weight="450" text-anchor="start" fill="#667384" opacity="1">会话、缓存与权限状态</text><path d="M375 500 H424" fill="none" stroke="#23836d" stroke-width="3" marker-end="url(#arrow)"/><rect x="345.5" y="462" width="108" height="26" rx="13" fill="#f7f5f1"/><text x="399.5" y="481" font-family="'Noto Sans SC','Microsoft YaHei',sans-serif" font-size="13" font-weight="650" text-anchor="middle" fill="#667384" opacity="1">操作</text><path d="M770 500 H819" fill="none" stroke="#23836d" stroke-width="3" marker-end="url(#arrow)"/><rect x="740.5" y="462" width="108" height="26" rx="13" fill="#f7f5f1"/><text x="794.5" y="481" font-family="'Noto Sans SC','Microsoft YaHei',sans-serif" font-size="13" font-weight="650" text-anchor="middle" fill="#667384" opacity="1">编排</text><path d="M1165 500 H1214" fill="none" stroke="#23836d" stroke-width="3" marker-end="url(#arrow)"/><rect x="1135.5" y="462" width="108" height="26" rx="13" fill="#f7f5f1"/><text x="1189.5" y="481" font-family="'Noto Sans SC','Microsoft YaHei',sans-serif" font-size="13" font-weight="650" text-anchor="middle" fill="#667384" opacity="1">持久化</text><line x1="48" y1="838" x2="1552" y2="838" stroke="#d9dee5"/><text x="48" y="871" font-family="'Noto Sans SC','Microsoft YaHei',sans-serif" font-size="15" font-weight="450" text-anchor="start" fill="#667384" opacity="1">数据分工：PostgreSQL 保存结构化元数据，Neo4j 保存图关系，Redis 承担短期状态与缓存。</text><text x="1552" y="871" font-family="'Inter','Segoe UI',sans-serif" font-size="13" font-weight="750" text-anchor="end" fill="#23836d" opacity="1">YILIN BLOG · 2026-08</text></svg>